<?xml version="1.0" encoding="utf-8"?>
<!-- Generator: Adobe Illustrator 24.3.0, SVG Export Plug-In . SVG Version: 6.00 Build 0)  -->
<svg version="1.1" id="Layer_1" xmlns="http://www.w3.org/2000/svg" xmlns:xlink="http://www.w3.org/1999/xlink" x="0px" y="0px"
	 viewBox="0 0 76 86" style="enable-background:new 0 0 76 86;" xml:space="preserve">
<style type="text/css">
	.st0{display:none;fill:#D3A560;}
	.st1{display:none;}
	.st2{display:inline;}
	.st3{fill:#D3A560;}
	.st4{display:inline;fill:#D3A560;}
</style>
<path class="st0" d="M-7.4,22.8c0.1,0,1.4,0.6,3.8,0.6c2.4,0,5.9-0.5,10.4-2.7l-8.9,33.3h-3c-0.6,0-1,0.4-1,1V58
	c0,2.9,2.4,5.3,5.3,5.3h19.4c2.9,0,5.3-2.4,5.3-5.3v-3.1c0-0.6-0.4-1-1-1h-4.2L9.5,19.2c0.1-0.1,0.3-0.2,0.4-0.2
	c8.3-5,15.9-5.7,19.6-5.7c-0.3,0.6-0.6,1.3-0.6,2.2l-3.2,54h-2.9c-2.6,0-4.8,2.1-4.8,4.8V75h-1.5c-0.6,0-1,0.4-1,1v6
	c0,0.6,0.4,1,1,1h31c0.6,0,1-0.4,1-1v-6c0-0.6-0.4-1-1-1H46v-0.8c0-2.6-2.1-4.8-4.8-4.8h-2.9l-3.2-54c-0.1-0.9-0.3-1.6-0.6-2.2
	c3.6,0,10.9,0.7,18.9,5.3l-9.3,35.4h-3c-0.6,0-1,0.4-1,1V58c0,2.9,2.4,5.3,5.3,5.3h19.4c2.9,0,5.3-2.4,5.3-5.3v-3.1c0-0.6-0.4-1-1-1
	h-4.2l-8.9-33.9c5,2.6,8.9,3.3,11.5,3.3c2.4,0,3.7-0.5,3.8-0.6c0.5-0.2,0.7-0.8,0.5-1.3c-0.2-0.5-0.8-0.8-1.3-0.6
	c-0.1,0-5.8,2.2-15.5-3.6c-8.1-4.8-15.4-5.9-19.6-6c0.8-0.9,1.4-2.1,1.4-3.4C36.9,5.2,34.7,3,32,3s-4.9,2.2-4.9,4.9
	c0,1.3,0.5,2.5,1.4,3.4c-4.2,0.1-11.6,1.2-19.6,6c-9.7,5.8-15.4,3.7-15.5,3.6c-0.5-0.2-1.1,0-1.3,0.5C-8.1,22-7.9,22.5-7.4,22.8z
	 M21.9,58c0,1.8-1.5,3.3-3.3,3.3H-0.8c-1.8,0-3.3-1.5-3.3-3.3v-2.1h26V58z M0,53.9l8.3-31.3l8.3,31.3H0z M46.5,81h-29v-4h29V81z
	 M44,74.2V75H20v-0.8c0-1.5,1.2-2.8,2.8-2.8h18.5C42.8,71.4,44,72.7,44,74.2z M36.4,69.4h-8.7l3.2-53.9c0.1-1.2,0.6-1.7,1.1-1.7
	c0.5,0,1.1,0.5,1.1,1.7L36.4,69.4z M68.1,58c0,1.8-1.5,3.3-3.3,3.3H45.4c-1.8,0-3.3-1.5-3.3-3.3v-2.1h26V58z M46.2,53.9l8.4-31.9
	l8.4,31.9H46.2z M32,5c1.6,0,2.9,1.3,2.9,2.9s-1.3,2.9-2.9,2.9c-1.6,0-2.9-1.3-2.9-2.9S30.4,5,32,5z"/>
<g class="st1">
	<g class="st2">
		<path class="st3" d="M-3.6,77.7c-0.2,0-0.4-0.1-0.6-0.2c-0.3-0.2-0.6-0.6-0.6-1V22.7c0-0.4,0.2-0.8,0.6-1c2.2-1.2,4.5-2.1,6.8-2.8
			l0.6,2.2c-2,0.6-3.9,1.3-5.8,2.3v51.3c3.7-1.9,9.6-4.4,16.2-5.3c7.9-1.1,14.7,0.3,20.1,4.3c0.4,0.3,0.8,0.6,1.2,0.9h8.1
			c0.4-0.3,0.8-0.6,1.2-0.9c5.4-4,12.2-5.4,20.1-4.3c6.5,0.9,12.5,3.5,16.2,5.3V23.4c-0.8-0.4-1.7-0.8-2.6-1.2l0.9-2.1
			c1.2,0.5,2.3,1,3.4,1.6c0.4,0.2,0.6,0.6,0.6,1v53.8c0,0.4-0.2,0.8-0.6,1c-0.3,0.2-0.8,0.2-1.1,0c-6.6-3.6-23.3-11-35.5-2.1
			c-0.5,0.3-0.9,0.7-1.4,1.1c-0.2,0.2-0.5,0.3-0.7,0.3h-8.9c-0.3,0-0.5-0.1-0.7-0.3c-0.4-0.4-0.9-0.7-1.4-1.1
			C20.2,66.5,3.6,73.9-3,77.5C-3.2,77.6-3.4,77.7-3.6,77.7z"/>
	</g>
	<g class="st2">
		<path class="st3" d="M51.5,47c-0.5,0-1-0.4-1.1-0.9c-1.2-5.3-0.8-11.2,1.1-16.6c2-5.5,5.4-10.3,9.8-13.3c0.4-0.3,0.9-0.3,1.3,0
			c0.1,0.1,0.2,0.2,0.3,0.3c2.3-2.1,4.9-3.8,8-5.2c4.5-2,9.6-3.1,14.8-3c0.4,0,0.7,0.2,0.9,0.5s0.2,0.7,0.1,1.1
			c-2.2,5-4.2,8.3-7.3,11.9c-0.4,0.5-0.9,1-1.3,1.5c0.2,0,0.4,0.1,0.5,0.2c0.4,0.3,0.5,0.8,0.4,1.3c-0.6,1.8-1.6,3.3-2.9,4.7
			c-1.5,1.7-3.6,3.1-5.9,4.1c0.1,0.1,0.1,0.2,0.2,0.3c0.1,0.4,0.1,0.8-0.1,1.1C65.9,41.1,59.2,45.3,51.7,47C51.7,47,51.6,47,51.5,47
			z M60.4,19.8c-6.4,5.8-9.7,15.6-8,24.6c5.9-1.5,11.1-4.8,14.8-9.2l-1.3-0.2C65.4,35,65,34.5,65,34c0-0.5,0.3-1,0.8-1.1
			c3.6-0.9,6.5-2.6,8.5-4.8c0.5-0.6,1-1.2,1.4-1.8c-0.1,0-0.2,0-0.2,0.1c-0.2,0.1-0.4,0.1-0.6,0.2c-0.5,0.3-1.1,0.2-1.5-0.2
			c-0.4-0.5-0.3-1.1,0.1-1.5c0.3-0.3,0.6-0.6,0.9-0.9l0,0c1.2-1.3,2.3-2.4,3.2-3.5c2.6-3,4.4-5.9,6.2-9.8c-4.2,0.2-8.4,1.1-12.1,2.8
			c-3.7,1.7-6.9,4-9.3,6.9c-0.3,0.4-0.9,0.5-1.3,0.3C60.7,20.4,60.5,20.1,60.4,19.8z"/>
	</g>
	<g class="st2">
		<path class="st3" d="M46.9,56.2l-2.1-1c3.4-7.4,7.6-14.6,12.5-21.2s10.4-12.8,16.4-18.3l1.5,1.7C63.5,28.2,53.6,41.6,46.9,56.2z"
			/>
	</g>
	<g class="st2">
		<path class="st3" d="M9.6,44.1L8.9,42c1.1-0.3,2.2-0.6,3.3-0.8l0.4,2.2C11.6,43.6,10.6,43.8,9.6,44.1z"/>
	</g>
	<g class="st2">
		<path class="st3" d="M9.6,23.2L8.9,21c3.1-0.9,6.4-1.4,9.6-1.4c2.4,0,4.8,0.3,7.1,0.8l-0.5,2.2c-2.2-0.5-4.4-0.7-6.6-0.7
			C15.5,21.9,12.5,22.4,9.6,23.2z"/>
	</g>
	<g class="st2">
		<path class="st3" d="M32.3,35.5c-3-1.5-6.2-2.5-9.6-2.9l0.3-2.3c3.6,0.5,7,1.5,10.3,3.1L32.3,35.5z"/>
	</g>
	<g class="st2">
		<path class="st3" d="M32.3,56.5c-4.3-2.1-8.9-3.2-13.8-3.2V51c5.2,0,10.1,1.1,14.8,3.4L32.3,56.5z"/>
	</g>
	<g class="st2">
		<path class="st3" d="M9.6,54.6l-0.7-2.2c1.5-0.5,3.1-0.8,4.7-1l0.3,2.2C12.5,53.8,11,54.2,9.6,54.6z"/>
	</g>
	<g class="st2">
		<path class="st3" d="M9.6,33.7l-0.7-2.2c3.1-0.9,6.4-1.4,9.6-1.4v2.3C15.5,32.4,12.5,32.8,9.6,33.7z"/>
	</g>
	<g class="st2">
		<path class="st3" d="M32.3,46c-4.3-2.1-8.9-3.2-13.8-3.2c-0.8,0-1.6,0-2.5,0.1L16,40.7c0.9-0.1,1.8-0.1,2.6-0.1
			c5.2,0,10.1,1.1,14.8,3.4L32.3,46z"/>
	</g>
	<g class="st2">
		<path class="st3" d="M32.3,25.1c-1.1-0.5-2.3-1-3.4-1.4l0.7-2.1c1.3,0.4,2.5,1,3.7,1.5L32.3,25.1z"/>
	</g>
	<g class="st2">
		<path class="st3" d="M39.1,71.2c-0.3,0-0.5-0.1-0.7-0.3c-0.4-0.4-0.9-0.7-1.4-1.1c-0.9-0.7-1.9-1.3-2.9-1.9
			c-4.7-2.7-10.1-4.1-15.5-4.1c-5.3,0-10.4,1.3-15,3.8c-0.4,0.2-0.8,0.2-1.1,0c-0.3-0.2-0.6-0.6-0.6-1V14.2c0-0.4,0.2-0.8,0.6-1
			C7.4,10.5,13,9.1,18.6,9.1c3.9,0,7.8,0.7,11.5,2c3.5,1.3,6.8,3.2,9.8,5.6c0.3,0.2,0.4,0.5,0.4,0.9V70c0,0.4-0.3,0.8-0.6,1
			C39.4,71.1,39.3,71.2,39.1,71.2z M18.6,61.6c5.8,0,11.6,1.5,16.6,4.4c0.9,0.5,1.9,1.1,2.8,1.8V18c-5.5-4.3-12.4-6.7-19.4-6.7
			c-5,0-10,1.2-14.4,3.5v50C8.6,62.7,13.6,61.6,18.6,61.6z"/>
	</g>
	<g class="st2">
		<path class="st3" d="M45.8,25.1l-1-2c1.2-0.6,2.4-1.1,3.7-1.5l0.7,2.1C48.1,24.1,47,24.5,45.8,25.1z"/>
	</g>
	<g class="st2">
		<path class="st3" d="M39.1,71.2c-0.2,0-0.3,0-0.5-0.1c-0.4-0.2-0.6-0.6-0.6-1V17.5c0-0.3,0.2-0.7,0.4-0.9c2.9-2.4,6.2-4.3,9.8-5.6
			c3.7-1.3,7.5-2,11.5-2c4.2,0,8.2,0.7,12,2.2c0.4,0.2,0.7,0.6,0.7,1c0,0.5-0.3,0.9-0.7,1.1c-3.7,1.7-6.9,4-9.3,6.9
			c-0.3,0.4-0.9,0.5-1.3,0.3c-0.3-0.1-0.5-0.4-0.6-0.7c-6.4,5.8-9.7,15.6-8,24.6c5.9-1.5,11.1-4.8,14.8-9.2l-1.3-0.2
			C65.4,35,65,34.5,65,34c0-0.5,0.3-1,0.8-1.1c3.6-0.9,6.5-2.6,8.5-4.8c0.3-0.3,0.8-0.5,1.2-0.3c0.4,0.2,0.7,0.6,0.7,1.1v37.8
			c0,0.4-0.2,0.8-0.6,1c-0.3,0.2-0.8,0.2-1.1,0c-4.6-2.5-9.8-3.8-15-3.8c-5.4,0-10.8,1.4-15.5,4.1c-1,0.6-2,1.2-2.9,1.9
			c-0.5,0.3-0.9,0.7-1.4,1.1C39.6,71.1,39.4,71.2,39.1,71.2z M40.2,18v49.7c0.9-0.6,1.8-1.2,2.8-1.8c5-2.9,10.8-4.4,16.6-4.4
			c5,0,9.9,1.1,14.4,3.2V31.4c-1.2,0.9-2.5,1.7-4,2.3c0.1,0.1,0.1,0.2,0.2,0.3c0.1,0.4,0.1,0.8-0.1,1.1C65.9,41.1,59.2,45.3,51.7,47
			c-0.6,0.1-1.2-0.3-1.3-0.9c-1.2-5.3-0.8-11.2,1.1-16.6c2-5.5,5.4-10.3,9.8-13.3c0.4-0.3,0.9-0.3,1.3,0c0.1,0.1,0.2,0.2,0.3,0.3
			c1.6-1.5,3.5-2.8,5.5-4c-2.8-0.8-5.7-1.2-8.7-1.2C52.6,11.3,45.7,13.7,40.2,18z"/>
	</g>
</g>
<path class="st3" d="M20.9,3.4c0,0-0.1,0-0.1,0c-0.5,0.1-0.9,0.6-0.9,1.1v3.4h-2.3c-3.1,0-5.7,2.5-5.7,5.7v4.8
	C6.8,19.4,2.9,24,2.9,29.4c0,5,3.3,9.3,7.8,10.7c-4.5,1.5-7.8,5.7-7.8,10.7v30.5c0,0.6,0.5,1.1,1.1,1.1h20.4c0.6,0,1.1-0.5,1.1-1.1
	V56.3c1.1-0.3,14.1-3.9,19.6-5.4c1.3-0.4,2.6-0.9,3.6-1.8s1.7-2.2,1.7-3.8c0-3.1-2.5-5.7-5.7-5.7H19.1c3.8-1.8,6.4-5.7,6.4-10.2
	c0-6.2-5.1-11.3-11.3-11.3v-4.5c0-1.9,1.5-3.4,3.4-3.4h49.8c1.9,0,3.4,1.5,3.4,3.4V43c0,1.9-1.5,3.4-3.4,3.4H56.1
	c-0.6,0-1.1,0.5-1.1,1.1s0.5,1.1,1.1,1.1c0,0,0,0,0,0h11.3c3.1,0,5.7-2.5,5.7-5.7V13.6c0-3.1-2.5-5.7-5.7-5.7h-2.3V4.6
	c0-0.6-0.5-1.1-1.1-1.2c-0.1,0-0.2,0-0.3,0c-0.5,0.1-0.9,0.6-0.9,1.1v3.4H22.2V4.6c0-0.6-0.5-1.1-1.1-1.2C21,3.4,21,3.4,20.9,3.4z
	 M14.2,20.4c5,0,9.1,4,9.1,9.1s-4,9.1-9.1,9.1s-9.1-4-9.1-9.1S9.2,20.4,14.2,20.4z M58,39.6c-0.6,0.1-1.1,0.7-1,1.3
	c0.1,0.6,0.7,1.1,1.3,1h6.8c0.6,0,1.1-0.5,1.1-1.1c0-0.6-0.5-1.1-1.1-1.1c0,0,0,0,0,0h-6.8c-0.1,0-0.1,0-0.2,0
	C58.1,39.6,58.1,39.6,58,39.6z M14.2,41.9h30.5c1.9,0,3.4,1.5,3.4,3.4c0,1-0.3,1.6-1,2.1c-0.6,0.6-1.6,1-2.7,1.3c0,0,0,0,0,0
	c-5.7,1.6-20.4,5.6-20.4,5.6c-0.5,0.1-0.8,0.6-0.8,1.1v24.9H5.2V50.9C5.2,45.9,9.2,41.9,14.2,41.9z"/>
<g class="st1">
	<path class="st4" d="M57.9,36.6h-5.1V29V16.2c0-6.3-5.2-11.5-11.5-11.5h-2.6c-6.3,0-11.5,5.2-11.5,11.5V29v7.7h-5.1
		c-0.7,0-1.3,0.6-1.3,1.3v15.3c0,6.3,5.2,11.5,11.5,11.5h6.4v7.7h-7.7c-0.7,0-1.3,0.6-1.3,1.3V80c0,0.7,0.6,1.3,1.3,1.3h17.9
		c0.7,0,1.3-0.6,1.3-1.3v-6.4c0-0.7-0.6-1.3-1.3-1.3h-7.7v-7.7h6.4c6.3,0,11.5-5.2,11.5-11.5V37.9C59.1,37.2,58.6,36.6,57.9,36.6z
		 M47.7,78.7H32.3v-3.8h15.3V78.7z M47.2,9.5c0.8,0.7,1.5,1.6,2,2.5L29.8,23.1v-3.6L47,9.7C47.1,9.6,47.1,9.6,47.2,9.5z M50.2,27.7
		H38.4L50.2,21V27.7z M50.2,16.2V18l-16.9,9.7h-3.5v-1.6L50,14.5C50.1,15,50.2,15.6,50.2,16.2z M29.8,30.2h20.4v19.1
		c0,2.8-2.3,5.1-5.1,5.1H34.9c-2.8,0-5.1-2.3-5.1-5.1V30.2z M38.7,7.3h2.6c1.2,0,2.4,0.3,3.5,0.7l-15,8.6v-0.4
		C29.8,11.3,33.8,7.3,38.7,7.3z M56.6,53.2c0,4.9-4,8.9-8.9,8.9H32.3c-4.9,0-8.9-4-8.9-8.9v-14h3.8v10.2c0,4.2,3.4,7.7,7.7,7.7h10.2
		c4.2,0,7.7-3.4,7.7-7.7V39.2h3.8V53.2z"/>
	<path class="st4" d="M34.9,37.9h10.2c0.7,0,1.3-0.6,1.3-1.3c0-0.7-0.6-1.3-1.3-1.3H34.9c-0.7,0-1.3,0.6-1.3,1.3
		C33.6,37.3,34.2,37.9,34.9,37.9z"/>
	<path class="st4" d="M64.2,14.9c0.7,0,1.3-0.6,1.3-1.3v-2.6c0-0.7-0.6-1.3-1.3-1.3c-0.7,0-1.3,0.6-1.3,1.3v2.6
		C63,14.4,63.5,14.9,64.2,14.9z"/>
	<path class="st4" d="M61.7,14.9h-2.6c-0.7,0-1.3,0.6-1.3,1.3c0,0.7,0.6,1.3,1.3,1.3h2.6c0.7,0,1.3-0.6,1.3-1.3
		C63,15.5,62.4,14.9,61.7,14.9z"/>
	<path class="st4" d="M64.2,17.5c-0.7,0-1.3,0.6-1.3,1.3v2.6c0,0.7,0.6,1.3,1.3,1.3c0.7,0,1.3-0.6,1.3-1.3v-2.6
		C65.5,18.1,64.9,17.5,64.2,17.5z"/>
	<path class="st4" d="M69.3,14.9h-2.6c-0.7,0-1.3,0.6-1.3,1.3c0,0.7,0.6,1.3,1.3,1.3h2.6c0.7,0,1.3-0.6,1.3-1.3
		C70.6,15.5,70,14.9,69.3,14.9z"/>
	<path class="st4" d="M15.8,25.1c0.7,0,1.3-0.6,1.3-1.3v-2.6c0-0.7-0.6-1.3-1.3-1.3s-1.3,0.6-1.3,1.3v2.6
		C14.5,24.6,15.1,25.1,15.8,25.1z"/>
	<path class="st4" d="M13.2,25.1h-2.6c-0.7,0-1.3,0.6-1.3,1.3s0.6,1.3,1.3,1.3h2.6c0.7,0,1.3-0.6,1.3-1.3S13.9,25.1,13.2,25.1z"/>
	<path class="st4" d="M15.8,27.7c-0.7,0-1.3,0.6-1.3,1.3v2.6c0,0.7,0.6,1.3,1.3,1.3s1.3-0.6,1.3-1.3V29C17,28.3,16.5,27.7,15.8,27.7
		z"/>
	<path class="st4" d="M22.1,26.4c0-0.7-0.6-1.3-1.3-1.3h-2.6c-0.7,0-1.3,0.6-1.3,1.3s0.6,1.3,1.3,1.3h2.6
		C21.6,27.7,22.1,27.1,22.1,26.4z"/>
</g>
</svg>
